# xmcd
#
# Track frame offsets:
#	150
#	16666
#	31086
#	42432
#	59783
#	73748
#	89437
#	101187
#	111749
#	125034
#	137446
#	150198
#	165478
#	174592
#	187010
#	200143
#	211483
#
# Disc length: 2959 seconds
#
# Revision: 2
# Processed by: cddbd v1.5.2PL0 Copyright (c) Steve Scherf et al.
# Submitted via: EZCDAudioConverter 8.3.2.1
#
DISCID=fa0b8d11
DTITLE=Various Artist - 小田製樂 - 黎小田特強流行經典五十 DSD RE-Mastered DE-Magnetic (EZ-WAV)
DYEAR=2018
DGENRE=Pop
TTITLE0=張國榮 - 追族 (電視劇 追族 主題曲)
TTITLE1=關正傑 - 變色龍 (電視劇 變色龍 主題曲)
TTITLE2=李龍基 - 巨星 (電視劇 巨星 主題曲)
TTITLE3=關正傑 - 殘夢 (電視劇 天龍訣 插曲)
TTITLE4=關正傑 - 天蠶變 (電視劇 天蠶變 主題曲)
TTITLE5=柳影虹 - 換到千般恨 (電視劇 天蠶變 插曲)
TTITLE6=葉振棠 - 太極張三豐 (電視劇 太極張三豐 主題曲)
TTITLE7=關正傑 - 大地恩情 (電視劇 大地恩情 主題曲)
TTITLE8=關正傑 and 雷安娜 - 人在旅途灑淚時 (電視劇 人在江湖 插曲)
TTITLE9=葉振棠 - 戲劇人生 (電視劇 浮生六劫 主題曲之二)
TTITLE10=曾路得 - 驟雨中的陽光 (電視劇 驟雨中的陽光 主題曲)
TTITLE11=葉振棠 - 找不著藉口 (電視劇 浴血太平山 插曲)
TTITLE12=盧業瑂 - 甜甜廿四味 (電視劇 甜甜廿四味 主題曲)
TTITLE13=曾路得 - 風箏 (電視劇 驟雨中的陽光續集 主題曲)
TTITLE14=葉振棠 - 大俠霍元甲 (電視劇 大俠霍元甲 主題曲)
TTITLE15=蔡楓華 - IQ成熟時 (電視劇 IQ成熟時 主題曲)
TTITLE16=盧業瑂 - 心思思 (電視劇 對對糊 主題曲)
EXTD=
EXTT0=
EXTT1=
EXTT2=
EXTT3=
EXTT4=
EXTT5=
EXTT6=
EXTT7=
EXTT8=
EXTT9=
EXTT10=
EXTT11=
EXTT12=
EXTT13=
EXTT14=
EXTT15=
EXTT16=
PLAYORDER=
